<mxfile host="Electron" modified="2024-08-16T08:24:14.436Z" agent="Mozilla/5.0 (Macintosh; Intel Mac OS X 10_15_7) AppleWebKit/537.36 (KHTML, like Gecko) draw.io/24.4.8 Chrome/124.0.6367.207 Electron/30.0.6 Safari/537.36" etag="Wqca0tpleNepaVzVmlnb" version="24.4.8" type="device">
  <diagram name="Page-1" id="kvei00vFUULbJIkaegvr">
    <mxGraphModel dx="954" dy="727" grid="0" gridSize="10" guides="1" tooltips="1" connect="1" arrows="1" fold="1" page="1" pageScale="1" pageWidth="850" pageHeight="1100" background="#F8F7F7" math="0" shadow="0">
      <root>
        <mxCell id="0" />
        <mxCell id="1" parent="0" />
        <mxCell id="JJzQ2G9ZFSuwLRmHdmnI-4" value="" style="shape=link;html=1;rounded=0;" edge="1" parent="1">
          <mxGeometry width="100" relative="1" as="geometry">
            <mxPoint x="82" y="178" as="sourcePoint" />
            <mxPoint x="431" y="178" as="targetPoint" />
          </mxGeometry>
        </mxCell>
        <mxCell id="JJzQ2G9ZFSuwLRmHdmnI-5" value="容器" style="rounded=1;whiteSpace=wrap;html=1;fillColor=#fff2cc;strokeColor=#d6b656;" vertex="1" parent="1">
          <mxGeometry x="104" y="125" width="74" height="27" as="geometry" />
        </mxCell>
        <mxCell id="JJzQ2G9ZFSuwLRmHdmnI-6" value="sentry" style="rounded=1;whiteSpace=wrap;html=1;fillColor=#dae8fc;strokeColor=#6c8ebf;" vertex="1" parent="1">
          <mxGeometry x="214" y="125" width="65" height="27" as="geometry" />
        </mxCell>
        <mxCell id="JJzQ2G9ZFSuwLRmHdmnI-7" value="Gofer" style="rounded=1;whiteSpace=wrap;html=1;fillColor=#d5e8d4;strokeColor=#82b366;" vertex="1" parent="1">
          <mxGeometry x="326" y="125" width="65" height="27" as="geometry" />
        </mxCell>
        <mxCell id="JJzQ2G9ZFSuwLRmHdmnI-10" value="" style="endArrow=classic;html=1;rounded=0;" edge="1" parent="1">
          <mxGeometry width="50" height="50" relative="1" as="geometry">
            <mxPoint x="139" y="159" as="sourcePoint" />
            <mxPoint x="139" y="225" as="targetPoint" />
          </mxGeometry>
        </mxCell>
        <mxCell id="JJzQ2G9ZFSuwLRmHdmnI-11" value="" style="endArrow=classic;html=1;rounded=0;" edge="1" parent="1">
          <mxGeometry width="50" height="50" relative="1" as="geometry">
            <mxPoint x="246" y="161" as="sourcePoint" />
            <mxPoint x="246" y="227" as="targetPoint" />
          </mxGeometry>
        </mxCell>
        <mxCell id="JJzQ2G9ZFSuwLRmHdmnI-12" value="" style="endArrow=classic;html=1;rounded=0;" edge="1" parent="1">
          <mxGeometry width="50" height="50" relative="1" as="geometry">
            <mxPoint x="361" y="161" as="sourcePoint" />
            <mxPoint x="361" y="227" as="targetPoint" />
          </mxGeometry>
        </mxCell>
        <mxCell id="JJzQ2G9ZFSuwLRmHdmnI-13" value="" style="endArrow=classic;html=1;rounded=0;" edge="1" parent="1">
          <mxGeometry width="50" height="50" relative="1" as="geometry">
            <mxPoint x="153" y="223" as="sourcePoint" />
            <mxPoint x="227" y="162" as="targetPoint" />
          </mxGeometry>
        </mxCell>
        <mxCell id="JJzQ2G9ZFSuwLRmHdmnI-14" value="" style="rounded=1;whiteSpace=wrap;html=1;fillColor=#f5f5f5;fontColor=#333333;strokeColor=#666666;" vertex="1" parent="1">
          <mxGeometry x="111" y="263" width="287" height="112" as="geometry" />
        </mxCell>
        <mxCell id="JJzQ2G9ZFSuwLRmHdmnI-15" value="宿主内核" style="text;html=1;align=center;verticalAlign=middle;whiteSpace=wrap;rounded=0;" vertex="1" parent="1">
          <mxGeometry x="214" y="340" width="60" height="30" as="geometry" />
        </mxCell>
        <mxCell id="JJzQ2G9ZFSuwLRmHdmnI-16" value="namespace" style="rounded=1;whiteSpace=wrap;html=1;fillColor=#ffe6cc;strokeColor=#d79b00;" vertex="1" parent="1">
          <mxGeometry x="258" y="301" width="108" height="24" as="geometry" />
        </mxCell>
        <mxCell id="JJzQ2G9ZFSuwLRmHdmnI-18" value="cgroup" style="rounded=1;whiteSpace=wrap;html=1;fillColor=#f8cecc;strokeColor=#b85450;" vertex="1" parent="1">
          <mxGeometry x="129" y="301" width="108" height="24" as="geometry" />
        </mxCell>
        <mxCell id="JJzQ2G9ZFSuwLRmHdmnI-19" value="系统调用拦截" style="rounded=1;whiteSpace=wrap;html=1;" vertex="1" parent="1">
          <mxGeometry x="84.5" y="251" width="113" height="27" as="geometry" />
        </mxCell>
      </root>
    </mxGraphModel>
  </diagram>
</mxfile>
